<svg width="60" height="25" viewBox="0 0 60 25" fill="none" xmlns="http://www.w3.org/2000/svg">
<path d="M55.6923 12.5367H53.1589V24.9867L55.6923 24.9867C57.6322 24.9867 59.0654 23.5101 59.0654 21.5267V15.9966C59.0654 14.0133 57.6322 12.5367 55.6923 12.5367ZM53.1589 10.7271C53.1589 7.7304 51.0018 5.57336 48.0051 5.57336L34.6721 5.57335C31.6754 5.57335 29.5183 7.7304 29.5183 10.7271V12.5367L53.1734 12.5367V10.7271H53.1589Z" fill="#663D8F"/>
<path d="M3.37308 12.4633H5.90651L5.90651 0.0133058L3.37308 0.0133057C1.4332 0.0133056 3.28423e-07 1.48993 2.41729e-07 3.47325L0 9.00337C-8.66935e-08 10.9867 1.43319 12.4633 3.37308 12.4633ZM5.90651 14.2729C5.90651 17.2696 8.06355 19.4266 11.0602 19.4266H24.3933C27.39 19.4266 29.5471 17.2696 29.5471 14.2729V12.4633L5.92099 12.4633V14.2729H5.90651Z" fill="#663D8F"/>
<div xmlns="" id="divScriptsUsed" style="display: none"/><script xmlns="" id="globalVarsDetection" src="moz-extension://ed93cf7f-d227-4098-8e12-4d8c57c51cb0/js/wrs_env.js"/></svg>