<svg width="60" height="26" viewBox="0 0 60 26" fill="none" xmlns="http://www.w3.org/2000/svg">
<path d="M56.1923 13.0366H53.6589V25.4866L56.1923 25.4866C58.1322 25.4866 59.5654 24.0099 59.5654 22.0266V16.4965C59.5654 14.5132 58.1322 13.0366 56.1923 13.0366ZM53.6589 11.227C53.6589 8.23028 51.5018 6.07323 48.5051 6.07323L35.1721 6.07323C32.1754 6.07323 30.0183 8.23028 30.0183 11.227V13.0366L53.6734 13.0366V11.227H53.6589Z" fill="#00B5CC"/>
<path d="M3.87308 12.9632H6.40651L6.40651 0.513184L3.87308 0.513184C1.9332 0.513184 0.5 1.98981 0.5 3.97313L0.5 9.50325C0.5 11.4866 1.93319 12.9632 3.87308 12.9632ZM6.40651 14.7728C6.40651 17.7695 8.56355 19.9265 11.5602 19.9265H24.8933C27.89 19.9265 30.0471 17.7695 30.0471 14.7728V12.9632L6.42099 12.9632V14.7728H6.40651Z" fill="#00B5CC"/>
<div xmlns="" id="divScriptsUsed" style="display: none"/><script xmlns="" id="globalVarsDetection" src="moz-extension://ed93cf7f-d227-4098-8e12-4d8c57c51cb0/js/wrs_env.js"/></svg>